<svg xmlns="http://www.w3.org/2000/svg" style="display: none;">
    <symbol id="notifications" viewBox="0 -960 960 960" fill="currentColor">
        <path
            d="M200-200q-17 0-28.5-11.5T160-240q0-17 11.5-28.5T200-280h40v-280q0-83 50-147.5T420-792v-28q0-25 17.5-42.5T480-880q25 0 42.5 17.5T540-820v28q80 20 130 84.5T720-560v280h40q17 0 28.5 11.5T800-240q0 17-11.5 28.5T760-200H200Zm280-300Zm0 420q-33 0-56.5-23.5T400-160h160q0 33-23.5 56.5T480-80ZM320-280h320v-280q0-66-47-113t-113-47q-66 0-113 47t-47 113v280Z" />
    </symbol>
    <symbol id="order" viewBox="0 -960 960 960" fill="currentColor">
        <path
            d="M320-280q17 0 28.5-11.5T360-320q0-17-11.5-28.5T320-360q-17 0-28.5 11.5T280-320q0 17 11.5 28.5T320-280Zm0-160q17 0 28.5-11.5T360-480q0-17-11.5-28.5T320-520q-17 0-28.5 11.5T280-480q0 17 11.5 28.5T320-440Zm0-160q17 0 28.5-11.5T360-640q0-17-11.5-28.5T320-680q-17 0-28.5 11.5T280-640q0 17 11.5 28.5T320-600Zm160 320h160q17 0 28.5-11.5T680-320q0-17-11.5-28.5T640-360H480q-17 0-28.5 11.5T440-320q0 17 11.5 28.5T480-280Zm0-160h160q17 0 28.5-11.5T680-480q0-17-11.5-28.5T640-520H480q-17 0-28.5 11.5T440-480q0 17 11.5 28.5T480-440Zm0-160h160q17 0 28.5-11.5T680-640q0-17-11.5-28.5T640-680H480q-17 0-28.5 11.5T440-640q0 17 11.5 28.5T480-600ZM200-120q-33 0-56.5-23.5T120-200v-560q0-33 23.5-56.5T200-840h560q33 0 56.5 23.5T840-760v560q0 33-23.5 56.5T760-120H200Zm0-80h560v-560H200v560Zm0-560v560-560Z" />
    </symbol>
    <symbol id="package" viewBox="0 -960 960 960" fill="currentColor">
        <path
            d="M460-171.46v-297.08L200-619.08v283.23q0 6.16 3.08 11.54 3.07 5.39 9.23 9.23L460-171.46Zm40 0 247.69-143.62q6.16-3.84 9.23-9.23 3.08-5.38 3.08-11.54v-283.23L500-468.54v297.08Zm-52.31 38.92L192.31-279.69q-15.16-8.69-23.73-23.62-8.58-14.92-8.58-32.31v-288.76q0-17.39 8.58-32.31 8.57-14.93 23.73-23.62l255.38-147.15q15.16-8.69 32.31-8.69 17.15 0 32.31 8.69l255.38 147.15q15.16 8.69 23.73 23.62 8.58 14.92 8.58 32.31v288.76q0 17.39-8.58 32.31-8.57 14.93-23.73 23.62L512.31-132.54q-15.16 8.69-32.31 8.69-17.15 0-32.31-8.69ZM628.46-589 737-651.46 492.31-793.08q-6.16-3.84-12.31-3.84t-12.31 3.84l-95.69 55L628.46-589ZM480-502.92l108-62.7-257-148.53-108 62.69 257 148.54Z" />
    </symbol>
    <symbol id="refresh" viewBox="0 -960 960 960" fill="currentColor">
        <path
            d="M482-170q-129.77 0-220.88-90.31Q170-350.62 170-480v-31.23l-52.92 52.92q-8.31 8.31-20.89 8.5-12.57.19-21.27-8.5-8.69-8.69-8.69-21.07 0-12.39 8.69-21.08l99.77-99.77q10.85-10.85 25.31-10.85 14.46 0 25.31 10.85l99.77 99.77q8.3 8.31 8.5 20.88.19 12.58-8.5 21.27-8.7 8.69-21.08 8.69-12.38 0-21.08-8.69L230-511.23V-480q0 104.23 73.38 177.12Q376.77-230 482-230q17.54 0 34.96-2.38 17.43-2.39 34.35-8.16 12.77-3.84 24.11.81 11.35 4.65 17.04 15.81 5.69 11.77.73 23.42-4.96 11.65-17.73 15.5-22.61 8-46.23 11.5Q505.62-170 482-170Zm-4-560q-17.54 0-34.96 2.38-17.43 2.39-34.35 8.16-12.77 3.84-24.42-.81-11.65-4.65-17.35-15.81-5.69-11.15-.92-22.8 4.77-11.66 16.92-15.5 23.23-8 47.04-11.81Q453.77-790 478-790q129.77 0 220.88 90.31Q790-609.38 790-480v31.23l52.92-52.92q8.31-8.31 20.89-8.5 12.57-.19 21.27 8.5 8.69 8.69 8.69 21.07 0 12.39-8.69 21.08l-99.77 99.77q-10.85 10.85-25.31 10.85-14.46 0-25.31-10.85l-99.77-99.77q-8.3-8.31-8.5-20.88-.19-12.58 8.5-21.27 8.7-8.69 21.08-8.69 12.38 0 21.08 8.69L730-448.77V-480q0-104.23-73.38-177.12Q583.23-730 478-730Z" />
    </symbol>
    <symbol id="right" viewBox="0 -960 960 960" fill="currentColor">
        <path
            d="M517.85-480 354.92-642.92q-8.3-8.31-8.5-20.89-.19-12.57 8.5-21.27 8.7-8.69 21.08-8.69 12.38 0 21.08 8.69l179.77 179.77q5.61 5.62 7.92 11.85 2.31 6.23 2.31 13.46t-2.31 13.46q-2.31 6.23-7.92 11.85L397.08-274.92q-8.31 8.3-20.89 8.5-12.57.19-21.27-8.5-8.69-8.7-8.69-21.08 0-12.38 8.69-21.08L517.85-480Z" />
    </symbol>
    <symbol id="search" viewBox="0 -960 960 960" fill="currentColor">
        <path
            d="M381.54-350.77q-95.92 0-162.58-66.65-66.65-66.66-66.65-162.58 0-95.92 66.65-162.58 66.66-66.65 162.58-66.65 95.92 0 162.58 66.65 66.65 66.66 66.65 162.58 0 41.69-14.77 80.69t-38.77 66.69l236.31 236.31q5.61 5.62 6 13.77.38 8.16-6 14.54-6.39 6.38-14.16 6.38-7.76 0-14.15-6.38L528.92-404.31q-30 25.54-69 39.54t-78.38 14Zm0-40q79.61 0 134.42-54.81 54.81-54.8 54.81-134.42 0-79.62-54.81-134.42-54.81-54.81-134.42-54.81-79.62 0-134.42 54.81-54.81 54.8-54.81 134.42 0 79.62 54.81 134.42 54.8 54.81 134.42 54.81Z" />
    </symbol>
    <symbol id="user" viewBox="0 -960 960 960" fill="currentColor">
        <path
            d="M480-492.31q-57.92 0-98.96-41.04Q340-574.38 340-632.31q0-57.92 41.04-98.96 41.04-41.04 98.96-41.04 57.92 0 98.96 41.04Q620-690.23 620-632.31q0 57.93-41.04 98.96-41.04 41.04-98.96 41.04ZM180-248.46v-28.16q0-29.38 15.96-54.42 15.96-25.04 42.66-38.5 59.3-29.07 119.65-43.61 60.35-14.54 121.73-14.54t121.73 14.54q60.35 14.54 119.65 43.61 26.7 13.46 42.66 38.5Q780-306 780-276.62v28.16q0 25.3-17.73 43.04-17.73 17.73-43.04 17.73H240.77q-25.31 0-43.04-17.73Q180-223.16 180-248.46Z" />
    </symbol>

    <symbol id="accounting" viewBox="0 -960 960 960" fill="currentColor">
        <path
            d="M320-320v50q0 13 8.5 21.5T350-240q13 0 21.5-8.5T380-270v-50h50q13 0 21.5-8.5T460-350q0-13-8.5-21.5T430-380h-50v-50q0-13-8.5-21.5T350-460q-13 0-21.5 8.5T320-430v50h-50q-13 0-21.5 8.5T240-350q0 13 8.5 21.5T270-320h50Zm230 50h140q13 0 21.5-8.5T720-300q0-13-8.5-21.5T690-330H550q-13 0-21.5 8.5T520-300q0 13 8.5 21.5T550-270Zm0-100h140q13 0 21.5-8.5T720-400q0-13-8.5-21.5T690-430H550q-13 0-21.5 8.5T520-400q0 13 8.5 21.5T550-370ZM280-592h140q13 0 21.5-8.5T450-622q0-13-8.5-21.5T420-652H280q-13 0-21.5 8.5T250-622q0 13 8.5 21.5T280-592Zm-80 472q-33 0-56.5-23.5T120-200v-560q0-33 23.5-56.5T200-840h560q33 0 56.5 23.5T840-760v560q0 33-23.5 56.5T760-120H200Zm0-80h560v-560H200v560Zm0-560v560-560Zm420 182 35 35q9 9 21 9t21-9q8-8 8.5-20.5T698-585l-36-37 35-35q9-9 9-21t-9-21q-9-9-21-9t-21 9l-35 35-35-35q-9-9-21-9t-21 9q-9 9-9 21t9 21l35 35-36 37q-8 9-8 21t9 21q9 9 21 9t21-9l35-35Z" />
    </symbol>
    <symbol id="addBox" viewBox="0 -960 960 960" fill="currentColor">
        <path
            d="M450-450v130q0 12.75 8.63 21.37 8.63 8.63 21.38 8.63 12.76 0 21.37-8.63Q510-307.25 510-320v-130h130q12.75 0 21.37-8.63 8.63-8.63 8.63-21.38 0-12.76-8.63-21.37Q652.75-510 640-510H510v-130q0-12.75-8.63-21.37-8.63-8.63-21.38-8.63-12.76 0-21.37 8.63Q450-652.75 450-640v130H320q-12.75 0-21.37 8.63-8.63 8.63-8.63 21.38 0 12.76 8.63 21.37Q307.25-450 320-450h130ZM212.31-140Q182-140 161-161q-21-21-21-51.31v-535.38Q140-778 161-799q21-21 51.31-21h535.38Q778-820 799-799q21 21 21 51.31v535.38Q820-182 799-161q-21 21-51.31 21H212.31Z" />
    </symbol>
    <symbol id="analytics" viewBox="0 -960 960 960" fill="currentColor">
        <path
            d="M320-480q-17 0-28.5 11.5T280-440v120q0 17 11.5 28.5T320-280q17 0 28.5-11.5T360-320v-120q0-17-11.5-28.5T320-480Zm320-200q-17 0-28.5 11.5T600-640v320q0 17 11.5 28.5T640-280q17 0 28.5-11.5T680-320v-320q0-17-11.5-28.5T640-680ZM480-400q-17 0-28.5 11.5T440-360v40q0 17 11.5 28.5T480-280q17 0 28.5-11.5T520-320v-40q0-17-11.5-28.5T480-400ZM200-120q-33 0-56.5-23.5T120-200v-560q0-33 23.5-56.5T200-840h560q33 0 56.5 23.5T840-760v560q0 33-23.5 56.5T760-120H200Zm0-80h560v-560H200v560Zm0-560v560-560Zm280 280q17 0 28.5-11.5T520-520q0-17-11.5-28.5T480-560q-17 0-28.5 11.5T440-520q0 17 11.5 28.5T480-480Z" />
    </symbol>
    <symbol id="back" viewBox="0 -960 960 960" fill="currentColor">
        <path
            d="M318.08-220q-12.77 0-21.39-8.62-8.61-8.61-8.61-21.38t8.61-21.38q8.62-8.62 21.39-8.62h257.07q62.62 0 107.77-41.35 45.16-41.34 45.16-102.11 0-60.77-45.16-101.93-45.15-41.15-107.77-41.15H294.31l90.23 90.23q8.69 8.7 8.69 21.08 0 12.38-8.69 21.08-8.69 8.69-21.27 8.5-12.58-.2-20.88-8.5L205.31-571.23q-5.62-5.62-7.92-11.85-2.31-6.23-2.31-13.46t2.31-13.46q2.3-6.23 7.92-11.85l137.08-137.07q8.69-8.69 21.07-8.69 12.39 0 21.08 8.69 8.69 8.69 8.5 21.27-.19 12.57-8.5 20.88l-90.23 90.23h280.84q87.77 0 150.35 58.58t62.58 144.5q0 85.92-62.58 144.69Q662.92-220 575.15-220H318.08Z" />
    </symbol>
    <symbol id="billing" viewBox="0 -960 960 960" fill="currentColor">
        <path
            d="M240-80q-50 0-85-35t-35-85v-80q0-17 11.5-28.5T160-320h80v-536q0-7 6-9.5t11 2.5l29 29q6 6 14 6t14-6l32-32q6-6 14-6t14 6l32 32q6 6 14 6t14-6l32-32q6-6 14-6t14 6l32 32q6 6 14 6t14-6l32-32q6-6 14-6t14 6l32 32q6 6 14 6t14-6l32-32q6-6 14-6t14 6l32 32q6 6 14 6t14-6l29-29q5-5 11-2.5t6 9.5v656q0 50-35 85t-85 35H240Zm480-80q17 0 28.5-11.5T760-200v-560H320v440h320q17 0 28.5 11.5T680-280v80q0 17 11.5 28.5T720-160ZM400-680h160q17 0 28.5 11.5T600-640q0 17-11.5 28.5T560-600H400q-17 0-28.5-11.5T360-640q0-17 11.5-28.5T400-680Zm0 120h160q17 0 28.5 11.5T600-520q0 17-11.5 28.5T560-480H400q-17 0-28.5-11.5T360-520q0-17 11.5-28.5T400-560Zm280-40q-17 0-28.5-11.5T640-640q0-17 11.5-28.5T680-680q17 0 28.5 11.5T720-640q0 17-11.5 28.5T680-600Zm0 120q-17 0-28.5-11.5T640-520q0-17 11.5-28.5T680-560q17 0 28.5 11.5T720-520q0 17-11.5 28.5T680-480ZM240-160h360v-80H200v40q0 17 11.5 28.5T240-160Zm-40 0v-80 80Z" />
    </symbol>
    <symbol id="cancel" viewBox="0 -960 960 960" fill="currentColor">
        <path
            d="M480-437.85 277.08-234.92q-8.31 8.3-20.89 8.5-12.57.19-21.27-8.5-8.69-8.7-8.69-21.08 0-12.38 8.69-21.08L437.85-480 234.92-682.92q-8.3-8.31-8.5-20.89-.19-12.57 8.5-21.27 8.7-8.69 21.08-8.69 12.38 0 21.08 8.69L480-522.15l202.92-202.93q8.31-8.3 20.89-8.5 12.57-.19 21.27 8.5 8.69 8.7 8.69 21.08 0 12.38-8.69 21.08L522.15-480l202.93 202.92q8.3 8.31 8.5 20.89.19 12.57-8.5 21.27-8.7 8.69-21.08 8.69-12.38 0-21.08-8.69L480-437.85Z" />
    </symbol>
    <symbol id="delete" viewBox="0 -960 960 960" fill="currentColor">
        <path
            d="M292.31-140q-29.92 0-51.12-21.19Q220-182.39 220-212.31V-720h-10q-12.77 0-21.38-8.62Q180-737.23 180-750t8.62-21.38Q197.23-780 210-780h150q0-14.69 10.35-25.04 10.34-10.34 25.03-10.34h169.24q14.69 0 25.03 10.34Q600-794.69 600-780h150q12.77 0 21.38 8.62Q780-762.77 780-750t-8.62 21.38Q762.77-720 750-720h-10v507.69q0 29.92-21.19 51.12Q697.61-140 667.69-140H292.31ZM480-417.85l82.92 82.93q8.31 8.3 20.89 8.5 12.57.19 21.27-8.5 8.69-8.7 8.69-21.08 0-12.38-8.69-21.08L522.15-460l82.93-82.92q8.3-8.31 8.5-20.89.19-12.57-8.5-21.27-8.7-8.69-21.08-8.69-12.38 0-21.08 8.69L480-502.15l-82.92-82.93q-8.31-8.3-20.89-8.5-12.57-.19-21.27 8.5-8.69 8.7-8.69 21.08 0 12.38 8.69 21.08L437.85-460l-82.93 82.92q-8.3 8.31-8.5 20.89-.19 12.57 8.5 21.27 8.7 8.69 21.08 8.69 12.38 0 21.08-8.69L480-417.85Z" />
    </symbol>
    <symbol id="edit" viewBox="0 -960 960 960" fill="currentColor">
        <path
            d="M176.16-140q-15.37 0-25.76-10.4-10.4-10.39-10.4-25.76v-69.3q0-14.63 5.62-27.89 5.61-13.26 15.46-23.11l506.54-506.31q9.07-8.24 20.03-12.73 10.97-4.5 23-4.5t23.3 4.27q11.28 4.27 19.97 13.58l48.85 49.46q9.31 8.69 13.27 20 3.96 11.31 3.96 22.62 0 12.07-4.12 23.03-4.12 10.97-13.11 20.04L296.46-161.08q-9.85 9.85-23.11 15.46-13.26 5.62-27.89 5.62h-69.3Zm525.92-512.23L760-709.77 709.77-760l-57.54 57.92 49.85 49.85Z" />
    </symbol>
    <symbol id="fist" viewBox="0 -960 960 960" fill="currentColor">
        <path
            d="M279.99-250q-12.76 0-21.37-8.63Q250-267.25 250-280v-400q0-12.75 8.63-21.37 8.63-8.63 21.38-8.63 12.76 0 21.37 8.63Q310-692.75 310-680v400q0 12.75-8.63 21.37-8.63 8.63-21.38 8.63Zm258.16-230 162.93 162.92q8.3 8.31 8.5 20.89.19 12.57-8.5 21.27-8.7 8.69-21.08 8.69-12.38 0-21.08-8.69L479.15-454.69q-5.61-5.62-7.92-11.9-2.31-6.28-2.31-13.46 0-7.18 2.31-13.41t7.92-11.85l179.77-179.77q8.31-8.3 20.89-8.5 12.57-.19 21.27 8.5 8.69 8.7 8.69 21.08 0 12.38-8.69 21.08L538.15-480Z" />
    </symbol>
    <symbol id="home" viewBox="0 -960 960 960" fill="currentColor">
        <path
            d="M240-200h120v-200q0-17 11.5-28.5T400-440h160q17 0 28.5 11.5T600-400v200h120v-360L480-740 240-560v360Zm-80 0v-360q0-19 8.5-36t23.5-28l240-180q21-16 48-16t48 16l240 180q15 11 23.5 28t8.5 36v360q0 33-23.5 56.5T720-120H560q-17 0-28.5-11.5T520-160v-200h-80v200q0 17-11.5 28.5T400-120H240q-33 0-56.5-23.5T160-200Zm320-270Z" />
    </symbol>
    <symbol id="inventory" viewBox="0 -960 960 960" fill="currentColor">
        <path
            d="m620-275 198-198q11-11 28-11t28 11q11 11 11 28t-11 28L648-191q-12 12-28 12t-28-12L478-305q-11-11-11-28t11-28q11-11 28-11t28 11l86 86ZM200-120q-33 0-56.5-23.5T120-200v-560q0-33 23.5-56.5T200-840h167q11-35 43-57.5t70-22.5q40 0 71.5 22.5T594-840h166q33 0 56.5 23.5T840-760v160q0 17-11.5 28.5T800-560q-17 0-28.5-11.5T760-600v-160h-80v80q0 17-11.5 28.5T640-640H320q-17 0-28.5-11.5T280-680v-80h-80v560h200q17 0 28.5 11.5T440-160q0 17-11.5 28.5T400-120H200Zm280-640q17 0 28.5-11.5T520-800q0-17-11.5-28.5T480-840q-17 0-28.5 11.5T440-800q0 17 11.5 28.5T480-760Z" />
    </symbol>
    <symbol id="last" viewBox="0 -960 960 960" fill="currentColor">
        <path
            d="M421.85-480 258.92-642.92q-8.3-8.31-8.5-20.89-.19-12.57 8.5-21.27 8.7-8.69 21.08-8.69 12.38 0 21.08 8.69l179.77 179.77q5.61 5.62 7.92 11.9 2.31 6.28 2.31 13.46 0 7.18-2.31 13.41t-7.92 11.85L301.08-274.92q-8.31 8.3-20.89 8.5-12.57.19-21.27-8.5-8.69-8.7-8.69-21.08 0-12.38 8.69-21.08L421.85-480Zm258.16-230q12.76 0 21.37 8.63Q710-692.75 710-680v400q0 12.75-8.63 21.37-8.63 8.63-21.38 8.63-12.76 0-21.37-8.63Q650-267.25 650-280v-400q0-12.75 8.63-21.37 8.63-8.63 21.38-8.63Z" />
    </symbol>
    <symbol id="left" viewBox="0 -960 960 960" fill="currentColor">
        <path
            d="m418.15-480 162.93 162.92q8.3 8.31 8.5 20.89.19 12.57-8.5 21.27-8.7 8.69-21.08 8.69-12.38 0-21.08-8.69L359.15-454.69q-5.61-5.62-7.92-11.85-2.31-6.23-2.31-13.46t2.31-13.46q2.31-6.23 7.92-11.85l179.77-179.77q8.31-8.3 20.89-8.5 12.57-.19 21.27 8.5 8.69 8.7 8.69 21.08 0 12.38-8.69 21.08L418.15-480Z" />
    </symbol>
    <symbol id="list" viewBox="0 -960 960 960" fill="currentColor">
        <path
            d="M140-300.19v-365q0-30.12 21.24-51.31t51.07-21.19h535.38q29.83 0 51.07 21.19Q820-695.31 820-665.19v365q0 30.11-21.24 51.3-21.24 21.2-51.07 21.2H212.31q-29.83 0-51.07-21.2Q140-270.08 140-300.19Zm60-287.5h90v-90h-77.69q-5.39 0-8.85 3.46t-3.46 8.85v77.69Zm150 0h410v-77.69q0-5.39-3.46-8.85t-8.85-3.46H350v90Zm0 150h410v-90H350v90Zm0 150h397.69q5.39 0 8.85-3.46Q760-294.62 760-300v-77.69H350v90Zm-137.69 0H290v-90h-90V-300q0 5.38 3.46 8.85 3.46 3.46 8.85 3.46Zm-12.31-150h90v-90h-90v90Z" />
    </symbol>
    <symbol id="lock" viewBox="0 -960 960 960" fill="currentColor">
        <path
            d="M252.31-100q-29.83 0-51.07-21.24Q180-142.48 180-172.31v-375.38q0-29.83 21.24-51.07Q222.48-620 252.31-620H300v-80q0-74.92 52.54-127.46Q405.08-880 480-880q74.92 0 127.46 52.54Q660-774.92 660-700v80h47.69q29.83 0 51.07 21.24Q780-577.52 780-547.69v375.38q0 29.83-21.24 51.07Q737.52-100 707.69-100H252.31ZM480-290q29.15 0 49.58-20.42Q550-330.85 550-360t-20.42-49.58Q509.15-430 480-430t-49.58 20.42Q410-389.15 410-360t20.42 49.58Q450.85-290 480-290ZM360-620h240v-80q0-50-35-85t-85-35q-50 0-85 35t-35 85v80Z" />
    </symbol>
    <symbol id="logout" viewBox="0 -960 960 960" fill="currentColor">
        <path
            d="M212.31-140Q182-140 161-161q-21-21-21-51.31v-535.38Q140-778 161-799q21-21 51.31-21h238.08q12.76 0 21.38 8.62 8.61 8.61 8.61 21.38t-8.61 21.38q-8.62 8.62-21.38 8.62H212.31q-4.62 0-8.46 3.85-3.85 3.84-3.85 8.46v535.38q0 4.62 3.85 8.46 3.84 3.85 8.46 3.85h238.08q12.76 0 21.38 8.62 8.61 8.61 8.61 21.38t-8.61 21.38q-8.62 8.62-21.38 8.62H212.31Zm492.38-310H393.85q-12.77 0-21.39-8.62-8.61-8.61-8.61-21.38t8.61-21.38q8.62-8.62 21.39-8.62h310.84l-76.92-76.92q-8.31-8.31-8.5-20.27-.19-11.96 8.5-21.27 8.69-9.31 21.08-9.62 12.38-.3 21.69 9l123.77 123.77q10.84 10.85 10.84 25.31 0 14.46-10.84 25.31L670.54-330.92q-8.92 8.92-21.19 8.8-12.27-.11-21.58-9.42-8.69-9.31-8.38-21.38.3-12.08 9-20.77l76.3-76.31Z" />
    </symbol>
    <symbol id="more" viewBox="0 -960 960 960" fill="currentColor">
        <path
            d="M249.23-420q-24.75 0-42.37-17.63-17.63-17.62-17.63-42.37 0-24.75 17.63-42.37Q224.48-540 249.23-540q24.75 0 42.38 17.63 17.62 17.62 17.62 42.37 0 24.75-17.62 42.37Q273.98-420 249.23-420ZM480-420q-24.75 0-42.37-17.63Q420-455.25 420-480q0-24.75 17.63-42.37Q455.25-540 480-540q24.75 0 42.37 17.63Q540-504.75 540-480q0 24.75-17.63 42.37Q504.75-420 480-420Zm230.77 0q-24.75 0-42.38-17.63-17.62-17.62-17.62-42.37 0-24.75 17.62-42.37Q686.02-540 710.77-540q24.75 0 42.37 17.63 17.63 17.62 17.63 42.37 0 24.75-17.63 42.37Q735.52-420 710.77-420Z" />
    </symbol>
    <symbol id="noteStack" viewBox="0 -960 960 960" fill="currentColor">
        <path
            d="M300-172.31v-416q0-29.94 21.5-50.82Q343-660 372.92-660h414.77q29.83 0 51.07 21.24Q860-617.52 860-587.69v269.3q0 14.64-5.62 27.9-5.61 13.26-15.46 23.1L692.61-121.08q-9.84 9.85-23.1 15.46-13.26 5.62-27.9 5.62h-269.3q-29.83 0-51.07-21.24Q300-142.48 300-172.31ZM101-703.08q-5.61-29.92 11.64-54t47.21-29.53L569.23-859q29.92-5.61 54 11.64 24.09 17.25 29.54 47.21l9.23 52.46H372.31q-66 0-113 47t-47 113v346.61q-14.85-7.84-25.39-21.5-10.53-13.65-13.53-31.11L101-703.08ZM550-350v90q0 12.75 8.63 21.37 8.63 8.63 21.38 8.63 12.76 0 21.37-8.63Q610-247.25 610-260v-90h90q12.75 0 21.37-8.63 8.63-8.63 8.63-21.38 0-12.76-8.63-21.37Q712.75-410 700-410h-90v-90q0-12.75-8.63-21.37-8.63-8.63-21.38-8.63-12.76 0-21.37 8.63Q550-512.75 550-500v90h-90q-12.75 0-21.37 8.63-8.63 8.63-8.63 21.38 0 12.76 8.63 21.37Q447.25-350 460-350h90Z" />
    </symbol>
    <symbol id="error" viewBox="0 -960 960 960" fill="currentColor">
        <path
            d="M480.01-290q12.76 0 21.37-8.63Q510-307.25 510-320v-170q0-12.75-8.63-21.38-8.63-8.62-21.38-8.62-12.76 0-21.37 8.62Q450-502.75 450-490v170q0 12.75 8.63 21.37 8.63 8.63 21.38 8.63ZM480-588.46q13.73 0 23.02-9.29t9.29-23.02q0-13.73-9.29-23.02-9.29-9.28-23.02-9.28t-23.02 9.28q-9.29 9.29-9.29 23.02t9.29 23.02q9.29 9.29 23.02 9.29Zm.07 488.46q-78.84 0-148.21-29.92t-120.68-81.21q-51.31-51.29-81.25-120.63Q100-401.1 100-479.93q0-78.84 29.92-148.21t81.21-120.68q51.29-51.31 120.63-81.25Q401.1-860 479.93-860q78.84 0 148.21 29.92t120.68 81.21q51.31 51.29 81.25 120.63Q860-558.9 860-480.07q0 78.84-29.92 148.21t-81.21 120.68q-51.29 51.31-120.63 81.25Q558.9-100 480.07-100Zm-.07-60q134 0 227-93t93-227q0-134-93-227t-227-93q-134 0-227 93t-93 227q0 134 93 227t227 93Zm0-320Z" />
    </symbol>
    <symbol id="warning" viewBox="0 -960 960 960" fill="currentColor">
        <path
            d="M137.02-140q-10.17 0-18.27-4.97t-12.59-13.11q-4.68-8.08-5.15-17.5-.47-9.42 5.08-18.66l342.43-591.52q5.56-9.24 13.9-13.66 8.35-4.42 17.58-4.42 9.23 0 17.58 4.42 8.34 4.42 13.9 13.66l342.43 591.52q5.55 9.24 5.08 18.66-.47 9.42-5.15 17.5-4.49 8.14-12.59 13.11-8.1 4.97-18.27 4.97H137.02ZM178-200h604L480-720 178-200Zm302-47.69q13.73 0 23.02-9.29t9.29-23.02q0-13.73-9.29-23.02T480-312.31q-13.73 0-23.02 9.29T447.69-280q0 13.73 9.29 23.02t23.02 9.29Zm.01-104.62q12.76 0 21.37-8.62 8.62-8.63 8.62-21.38v-140q0-12.75-8.63-21.37-8.63-8.63-21.38-8.63-12.76 0-21.37 8.63-8.62 8.62-8.62 21.37v140q0 12.75 8.63 21.38 8.63 8.62 21.38 8.62ZM480-460Z" />
    </symbol>

    <symbol id="success" viewBox="0 -960 960 960" fill="currentColor">
        <path
            d="m382-339.38 345.54-345.54q8.92-8.93 20.88-9.12 11.96-.19 21.27 9.12 9.31 9.31 9.31 21.38 0 12.08-9.31 21.39l-362.38 363q-10.85 10.84-25.31 10.84-14.46 0-25.31-10.84l-167-167q-8.92-8.93-8.8-21.2.11-12.26 9.42-21.57t21.38-9.31q12.08 0 21.39 9.31L382-339.38Z" />
    </symbol>
    <symbol id="warning-alter" viewBox="0 -960 960 960" fill="currentColor">
        <path
            d="M480-290.77q13.73 0 23.02-9.29t9.29-23.02q0-13.73-9.29-23.02-9.29-9.28-23.02-9.28t-23.02 9.28q-9.29 9.29-9.29 23.02t9.29 23.02q9.29 9.29 23.02 9.29Zm.01-146.15q12.76 0 21.37-8.63 8.62-8.62 8.62-21.37v-180q0-12.75-8.63-21.38-8.63-8.62-21.38-8.62-12.76 0-21.37 8.62-8.62 8.63-8.62 21.38v180q0 12.75 8.63 21.37 8.63 8.63 21.38 8.63Zm.06 336.92q-78.84 0-148.21-29.92t-120.68-81.21q-51.31-51.29-81.25-120.63Q100-401.1 100-479.93q0-78.84 29.92-148.21t81.21-120.68q51.29-51.31 120.63-81.25Q401.1-860 479.93-860q78.84 0 148.21 29.92t120.68 81.21q51.31 51.29 81.25 120.63Q860-558.9 860-480.07q0 78.84-29.92 148.21t-81.21 120.68q-51.29 51.31-120.63 81.25Q558.9-100 480.07-100Z" />
    </symbol>
    <symbol id="filter" viewBox="0 -960 960 960" fill="currentColor">
        <path
            d="M455.39-180q-15.08 0-25.23-10.16Q420-200.31 420-215.39v-231.53L196.08-731.38q-11.54-15.39-3.35-32 8.2-16.62 27.66-16.62h519.22q19.46 0 27.66 16.62 8.19 16.61-3.35 32L540-446.92v231.53q0 15.08-10.16 25.23Q519.69-180 504.61-180h-49.22Z" />
    </symbol>
    <symbol id="show" viewBox="0 -960 960 960" fill="currentColor">
        <path
            d="M480.09-336.92q67.99 0 115.49-47.59t47.5-115.58q0-67.99-47.59-115.49t-115.58-47.5q-67.99 0-115.49 47.59t-47.5 115.58q0 67.99 47.59 115.49t115.58 47.5ZM480-392q-45 0-76.5-31.5T372-500q0-45 31.5-76.5T480-608q45 0 76.5 31.5T588-500q0 45-31.5 76.5T480-392Zm0 172q-126.31 0-231.04-67.39-104.73-67.38-167.19-177.3-5-8.62-7.31-17.37-2.3-8.75-2.3-17.96t2.3-17.94q2.31-8.73 7.31-17.35 62.46-109.92 167.19-177.3Q353.69-780 480-780q126.31 0 231.04 67.39 104.73 67.38 167.19 177.3 5 8.62 7.31 17.37 2.3 8.75 2.3 17.96t-2.3 17.94q-2.31 8.73-7.31 17.35-62.46 109.92-167.19 177.3Q606.31-220 480-220Z" />
    </symbol>
    <symbol id="hide" viewBox="0 -960 960 960" fill="currentColor">
        <path
            d="M769.39-106.31 628.62-245.85q-35.39 13.69-72.74 19.77Q518.54-220 480-220q-126.31 0-231.35-67.19-105.03-67.2-166.49-177.12-5-8.61-7.31-17.54-2.31-8.92-2.31-18.15 0-9.23 2.5-18.35 2.5-9.11 7.5-17.34 23.92-39.77 50.85-76.96 26.92-37.2 62.61-65.81l-90.31-90.93q-8.3-8.3-8.5-20.57-.19-12.27 9.12-21.58 8.69-8.69 21.08-8.69 12.38 0 21.07 8.69l663.08 663.08q8.31 8.31 8.81 20.57.5 12.27-8.81 21.58-8.69 8.69-21.08 8.69-12.38 0-21.07-8.69ZM480-336.92q13.31 0 25.42-1.58 12.12-1.58 23.66-6.89L325.39-549.08q-4.93 11.54-6.7 23.66-1.77 12.11-1.77 25.42 0 68.08 47.5 115.58T480-336.92ZM480-780q126.69 0 232.42 67.5Q818.15-645 879.23-534.31q4.61 7.62 7.11 16.35t2.5 17.96q0 9.23-2.19 17.96t-6.81 16.35q-18.23 34.69-40.76 65.38-22.54 30.69-50.39 57.77-12.46 12.46-29.54 11.46-17.07-1-29.54-13.46L645.77-428q-6.23-6.23-8.23-14.39-2-8.15.23-17 2.84-10.3 4.07-20 1.24-9.69 1.24-20.61 0-68.08-47.5-115.58T480-663.08q-10.92 0-20.42 1.43-9.5 1.42-19.43 4.27-8.84 2.61-17.69.61-8.84-2-15.07-8.23l-37.24-37.23q-17.07-17.08-11.34-39.77 5.73-22.69 28.81-28.92 22.69-4.62 45.69-6.85 23-2.23 46.69-2.23Zm77.46 204.46q12.16 13.39 20.04 30.04 7.88 16.65 9.88 34.81 1 7.23-5.42 10.04-6.42 2.8-12.04-2.81l-85.84-85.46q-5.62-5.62-2.5-12.04 3.11-6.42 10.34-6.42 19.39 1.61 35.77 9.73 16.39 8.11 29.77 22.11Z" />
    </symbol>
    <symbol id="category" viewBox="0 -960 960 960" fill="currentColor">
        <path
            d="M287.69-535.39 480-850.77l192.31 315.38H287.69Zm412.13 440q-68.67 0-116.55-47.88-47.88-47.88-47.88-116.55 0-68.66 47.88-116.73 47.88-48.06 116.55-48.06 68.66 0 116.73 48.06 48.06 48.07 48.06 116.73 0 68.67-48.06 116.55-48.07 47.88-116.73 47.88Zm-564.43-20v-289.22h289.22v289.22H135.39Z" />
    </symbol>
    <symbol id="article" viewBox="0 -960 960 960" fill="currentColor">
        <path
            d="M212.31-140Q182-140 161-161q-21-21-21-51.31v-535.38Q140-778 161-799q21-21 51.31-21h535.38Q778-820 799-799q21 21 21 51.31v535.38Q820-182 799-161q-21 21-51.31 21H212.31ZM290-290h260v-60H290v60Zm0-160h380v-60H290v60Zm0-160h380v-60H290v60Z" />
    </symbol>
    <symbol id="feature" viewBox="0 -960 960 960" fill="currentColor">
        <path
            d="M480-560h192.31v-60H480v60Zm0 220h192.31v-60H480v60ZM360-525.39q26.65 0 45.63-18.98 18.98-18.98 18.98-45.63 0-26.65-18.98-45.63-18.98-18.98-45.63-18.98-26.65 0-45.63 18.98-18.98 18.98-18.98 45.63 0 26.65 18.98 45.63 18.98 18.98 45.63 18.98Zm0 220q26.65 0 45.63-18.98 18.98-18.98 18.98-45.63 0-26.65-18.98-45.63-18.98-18.98-45.63-18.98-26.65 0-45.63 18.98-18.98 18.98-18.98 45.63 0 26.65 18.98 45.63 18.98 18.98 45.63 18.98ZM212.31-140Q182-140 161-161q-21-21-21-51.31v-535.38Q140-778 161-799q21-21 51.31-21h535.38Q778-820 799-799q21 21 21 51.31v535.38Q820-182 799-161q-21 21-51.31 21H212.31Z" />
    </symbol>
    <symbol id="add" viewBox="0 -960 960 960" fill="currentColor">
        <path d="M450-450H220v-60h230v-230h60v230h230v60H510v230h-60v-230Z" />
    </symbol>
    <symbol id="admin" viewBox="0 -960 960 960" fill="currentColor">
        <path
            d="M680-100q-74.92 0-127.46-52.54Q500-205.08 500-280q0-74.92 52.54-127.46Q605.08-460 680-460q74.92 0 127.46 52.54Q860-354.92 860-280q0 74.92-52.54 127.46Q754.92-100 680-100Zm-200-.77q-129.77-35.39-214.88-152.77Q180-370.92 180-516v-230.15l300-112.31 300 112.31v226.61q-21.39-9.92-48.5-15.19Q704.38-540 680-540q-107.92 0-183.96 76.04T420-280q0 51.61 18.69 96.23 18.7 44.61 50.46 79.69-2.53.77-4.57 1.66-2.04.88-4.58 1.65ZM680-280q25 0 42.5-17.5T740-340q0-25-17.5-42.5T680-400q-25 0-42.5 17.5T620-340q0 25 17.5 42.5T680-280Zm0 120q31.38 0 57.19-14.31t42.19-38.31Q757-226 732-233q-25-7-52-7t-52 7q-25 7-47.38 20.38 16.38 24 42.19 38.31Q648.62-160 680-160Z" />
    </symbol>
    <symbol id="open" viewBox="0 -960 960 960" fill="currentColor">
        <path
            d="M202.87-111.87q-37.78 0-64.39-26.61t-26.61-64.39v-554.26q0-37.78 26.61-64.39t64.39-26.61H434.5q19.15 0 32.33 13.17Q480-821.78 480-802.63t-13.17 32.33q-13.18 13.17-32.33 13.17H202.87v554.26h554.26V-434.5q0-19.15 13.17-32.33Q783.48-480 802.63-480t32.33 13.17q13.17 13.18 13.17 32.33v231.63q0 37.78-26.61 64.39t-64.39 26.61H202.87Zm554.26-581.85L427-363.59q-12.67 12.68-31.59 12.56-18.91-.12-31.58-12.8-12.68-12.67-12.68-31.7 0-19.04 12.68-31.71l329.89-329.89H605.5q-19.15 0-32.33-13.17Q560-783.48 560-802.63t13.17-32.33q13.18-13.17 32.33-13.17h197.13q19.15 0 32.33 13.17 13.17 13.18 13.17 32.33v197.13q0 19.15-13.17 32.33Q821.78-560 802.63-560t-32.33-13.17q-13.17-13.18-13.17-32.33v-88.22Z" />
    </symbol>
    <symbol id="print" viewBox="0 -960 960 960" fill="currentColor">
        <path
            d="M332.31-140q-29.83 0-51.07-21.24Q260-182.48 260-212.31V-300h-76.15q-29.83 0-51.07-21.24-21.24-21.24-21.24-51.07v-155.38q0-42.5 29.04-71.25t70.96-28.75h536.92q42.5 0 71.25 28.75t28.75 71.25v155.38q0 29.83-21.24 51.07Q805.98-300 776.15-300H700v87.69q0 29.83-21.24 51.07Q657.52-140 627.69-140H332.31ZM700-663.08H260v-72.37q0-29.86 21.24-51.05 21.24-21.19 51.07-21.19h295.38q29.83 0 51.07 21.24Q700-765.21 700-735.38v72.3Zm12.31 195.39q17 0 28.5-11.5t11.5-28.5q0-17-11.5-28.5t-28.5-11.5q-17 0-28.5 11.5t-11.5 28.5q0 17 11.5 28.5t28.5 11.5ZM332.31-200h295.38q5.39 0 8.85-3.46t3.46-8.85v-146.15q0-5.39-3.46-8.85t-8.85-3.46H332.31q-5.39 0-8.85 3.46t-3.46 8.85v146.15q0 5.39 3.46 8.85t8.85 3.46Z" />
    </symbol>
    <symbol id="eyeGlasses" viewBox="0 -960 960 960" fill="currentColor">
        <path
            d="M285.92-359.23q31.39 0 56.66-18.39 25.27-18.38 35.65-48.15l13.85-43.31q16.38-49.15-8.58-90.42t-71.11-41.27H170.62l19 156.62q5 36.15 32.27 60.53 27.26 24.39 64.03 24.39Zm388.16 0q36.77 0 64.03-24.39 27.27-24.38 32.27-60.53l19-156.62H648.61q-46.15 0-71.3 41.58-25.16 41.57-8.77 90.73l13.23 42.69q10.38 29.77 35.65 48.15 25.27 18.39 56.66 18.39Zm-388.16 60q-59.07 0-103.57-39.08-44.5-39.08-51.73-98.54L110-600.77h-6.92q-12.77 0-21.39-8.61-8.61-8.62-8.61-21.39 0-12.77 8.61-21.38 8.62-8.62 21.39-8.62h209.31q39.38 0 72.61 20.16 33.23 20.15 53.08 55.23h84.84q19.85-35.08 53.08-55.23 33.23-20.16 72.61-20.16h208.31q12.77 0 21.39 8.62 8.61 8.61 8.61 21.38t-8.61 21.39q-8.62 8.61-21.39 8.61H850l-20.62 163.92q-7.23 59.46-51.73 98.54-44.5 39.08-103.57 39.08-51.23 0-91.93-29.23-40.69-29.23-57.15-77.46l-13.85-42.7q-2.38-8.15-4.38-17-2-8.84-4-25.92h-45.54q-2 15.08-4 24.12-2 9.03-4.38 17.19L435-406.92q-16.08 48.23-56.96 77.96-40.89 29.73-92.12 29.73Z" />
    </symbol>

    <symbol id="dropdown" viewBox="0 -960 960 960" fill="currentColor">
        <path
            d="M480-361q-8 0-15-2.5t-13-8.5L268-556q-11-11-11-28t11-28q11-11 28-11t28 11l156 156 156-156q11-11 28-11t28 11q11 11 11 28t-11 28L508-372q-6 6-13 8.5t-15 2.5Z" />
    </symbol>

    <symbol id="download" viewBox="0 -960 960 960" fill="currentColor">
        <path
            d="M480-343.54q-7.23 0-13.46-2.31-6.23-2.3-11.85-7.92L330.31-478.15q-8.92-8.93-8.81-20.89.12-11.96 8.81-21.27 9.31-9.3 21.38-9.61 12.08-.31 21.39 9L450-444v-306q0-12.77 8.62-21.38Q467.23-780 480-780t21.38 8.62Q510-762.77 510-750v306l76.92-76.92q8.93-8.92 21.19-8.81 12.27.12 21.58 9.42 8.69 9.31 9 21.08.31 11.77-9 21.08L505.31-353.77q-5.62 5.62-11.85 7.92-6.23 2.31-13.46 2.31ZM252.31-180Q222-180 201-201q-21-21-21-51.31v-78.46q0-12.77 8.62-21.38 8.61-8.62 21.38-8.62t21.38 8.62q8.62 8.61 8.62 21.38v78.46q0 4.62 3.85 8.46 3.84 3.85 8.46 3.85h455.38q4.62 0 8.46-3.85 3.85-3.84 3.85-8.46v-78.46q0-12.77 8.62-21.38 8.61-8.62 21.38-8.62t21.38 8.62q8.62 8.61 8.62 21.38v78.46Q780-222 759-201q-21 21-51.31 21H252.31Z" />
    </symbol>
    <symbol id="mail" viewBox="0 -960 960 960" fill="currentColor">
        <path
            d="M172.31-180Q142-180 121-201q-21-21-21-51.31v-455.38Q100-738 121-759q21-21 51.31-21h615.38Q818-780 839-759q21 21 21 51.31v455.38Q860-222 839-201q-21 21-51.31 21H172.31ZM480-464.31q5 0 9.92-1.5 4.93-1.5 9.54-4.11l286.08-183.16q6.84-4.23 9.69-10.96 2.85-6.73 1.69-14.19-.77-13.85-13.54-20.58-12.76-6.73-25.76 1.19L480-520 202.38-697.62q-13-7.92-25.57-1.27-12.58 6.66-13.73 20.27-1.16 8.08 1.69 15 2.85 6.93 9.69 10.54l286.08 183.16q4.61 2.61 9.54 4.11 4.92 1.5 9.92 1.5Z" />
    </symbol>
</svg>